HIERARCHY
ROOT root
{
	OFFSET 0.000000 0.000000 0.000000
	CHANNELS 6 Xposition Yposition Zposition Zrotation Yrotation Xrotation
	JOINT lhip
	{
		OFFSET 0.058581 -0.082280 -0.017664
		CHANNELS 3 Zrotation Yrotation Xrotation
		JOINT lknee
		{
			OFFSET 0.043451 -0.386469 0.008037
			CHANNELS 3 Zrotation Yrotation Xrotation
			JOINT lankle
			{
				OFFSET -0.014790 -0.426874 -0.037428
				CHANNELS 3 Zrotation Yrotation Xrotation
				JOINT ltoe
				{
					OFFSET 0.041054 -0.060286 0.122042
					CHANNELS 3 Zrotation Yrotation Xrotation
					End Site
					{
						OFFSET 0.000000 0.000000 0.000000
					}
				}
			}
		}
	}
	JOINT rhip
	{
		OFFSET -0.060310 -0.090513 -0.013543
		CHANNELS 3 Zrotation Yrotation Xrotation
		JOINT rknee
		{
			OFFSET -0.043257 -0.383688 -0.004843
			CHANNELS 3 Zrotation Yrotation Xrotation
			JOINT rankle
			{
				OFFSET 0.019056 -0.420046 -0.034562
				CHANNELS 3 Zrotation Yrotation Xrotation
				JOINT rtoe
				{
					OFFSET -0.034840 -0.062106 0.130323
					CHANNELS 3 Zrotation Yrotation Xrotation
					End Site
					{
						OFFSET 0.000000 0.000000 0.000000
					}
				}
			}
		}
	}
	JOINT lowerback
	{
		OFFSET 0.004439 0.124404 -0.038385
		CHANNELS 3 Zrotation Yrotation Xrotation
		JOINT upperback
		{
			OFFSET 0.004488 0.137956 0.026820
			CHANNELS 3 Zrotation Yrotation Xrotation
			JOINT chest
			{
				OFFSET -0.002265 0.056032 0.002855
				CHANNELS 3 Zrotation Yrotation Xrotation
				JOINT lowerneck
				{
					OFFSET -0.013390 0.211636 -0.033468
					CHANNELS 3 Zrotation Yrotation Xrotation
					JOINT upperneck
					{
						OFFSET 0.010113 0.088937 0.050410
						CHANNELS 3 Zrotation Yrotation Xrotation
						End Site
						{
							OFFSET 0.000000 0.000000 0.000000
						}
					}
				}
				JOINT lclavicle
				{
					OFFSET 0.071702 0.114000 -0.018898
					CHANNELS 3 Zrotation Yrotation Xrotation
					JOINT lshoulder
					{
						OFFSET 0.122921 0.045205 -0.019046
						CHANNELS 3 Zrotation Yrotation Xrotation
						JOINT lelbow
						{
							OFFSET 0.255332 -0.015649 -0.022946
							CHANNELS 3 Zrotation Yrotation Xrotation
							JOINT lwrist
							{
								OFFSET 0.265709 0.012698 -0.007375
								CHANNELS 3 Zrotation Yrotation Xrotation
								End Site
								{
									OFFSET 0.000000 0.000000 0.000000
								}
							}
						}
					}
				}
				JOINT rclavicle
				{
					OFFSET -0.082954 0.112472 -0.023707
					CHANNELS 3 Zrotation Yrotation Xrotation
					JOINT rshoulder
					{
						OFFSET -0.113228 0.046853 -0.008472
						CHANNELS 3 Zrotation Yrotation Xrotation
						JOINT relbow
						{
							OFFSET -0.260127 -0.014369 -0.031269
							CHANNELS 3 Zrotation Yrotation Xrotation
							JOINT rwrist
							{
								OFFSET -0.269108 0.006794 -0.006027
								CHANNELS 3 Zrotation Yrotation Xrotation
								End Site
								{
									OFFSET 0.000000 0.000000 0.000000
								}
							}
						}
					}
				}
			}
		}
	}
}
MOTION
Frames: 13
Frame Time: 0.033333
0.643055 1.855286 0.949883 -56.996215 1.442577 81.030127 15.366750 6.501721 0.165820 -7.763274 8.727691 22.882545 -0.148036 10.975677 -18.600519 0.000000 -0.000000 0.000000 -5.773774 -8.496183 6.687756 4.458540 -7.407200 18.374408 -3.541574 -4.041438 -24.797755 0.000000 -0.000000 0.000000 0.030184 3.957896 6.481749 0.874868 -1.575090 10.743070 1.662888 0.649450 1.030648 0.431039 18.890002 -0.802599 -2.305289 16.414306 1.514734 -28.245492 -3.463808 2.761798 -59.494798 -6.659797 9.745407 7.531472 -24.363485 8.422762 4.553031 -3.001721 -11.980589 28.676988 4.239961 7.577256 55.429662 11.199703 8.683655 -9.362896 22.207282 -0.407616 10.943824 3.696357 -9.914196 
0.638972 1.848110 0.947014 -57.964101 1.684478 81.312830 15.497108 6.456489 -0.181967 -7.682805 9.358977 24.522918 0.116167 11.762522 -19.805246 0.000000 -0.000000 0.000000 -5.795472 -7.896251 6.248653 4.775150 -6.792074 19.264432 -3.404167 -4.645031 -25.612627 0.000000 -0.000000 0.000000 0.164342 3.695540 7.070211 0.648145 -1.302790 9.883650 1.773112 0.624915 1.402229 0.544406 19.392201 -1.550948 -2.660721 17.164564 2.663934 -27.731294 -2.680787 2.730916 -59.026143 -6.052433 9.583639 7.232468 -27.675367 9.841423 3.844290 -2.969703 -13.340429 28.325582 4.201347 7.609066 55.679209 11.031725 8.933800 -9.469211 22.486345 -0.223912 11.304457 3.590106 -10.185222 
0.634570 1.839799 0.944314 -59.157280 2.139285 81.764273 15.765843 6.509037 -0.717839 -7.392962 10.248389 26.395608 0.214496 12.578411 -21.019647 0.000000 -0.000000 0.000000 -5.667175 -7.456733 5.493818 4.837769 -6.327787 20.495070 -3.504706 -4.564116 -26.521208 0.000000 -0.000000 0.000000 0.420702 3.526876 7.514746 0.790152 -0.937225 9.299472 1.759013 0.586313 1.518348 0.398033 19.731284 -1.768788 -3.147746 17.657409 2.952187 -27.100156 -1.254770 2.830170 -58.582413 -5.176248 9.323548 6.865606 -32.353488 9.934710 3.424761 -3.339438 -14.910789 28.106638 3.503834 7.531122 55.272744 10.980065 8.998591 -9.097548 23.317102 -0.274160 11.246142 3.717697 -10.356393 
0.629231 1.827859 0.940204 -61.110106 2.831408 82.605290 16.243500 6.933724 -1.917347 -6.946191 11.677717 29.500886 0.281313 13.415859 -22.541142 0.000000 -0.000000 0.000000 -5.702027 -7.060213 4.154977 5.074490 -5.571224 22.222881 -3.344318 -3.879315 -27.483981 0.000000 -0.000000 0.000000 0.659450 3.512696 8.155902 1.285288 -0.324188 8.433338 2.030016 0.582884 1.635220 0.158452 20.249876 -2.181474 -3.769455 18.379384 3.112153 -26.166458 0.866620 3.089978 -58.012014 -3.096133 9.227316 5.447739 -39.731270 11.291724 4.696220 -3.532461 -16.703126 27.725641 2.113052 7.325548 53.796765 10.502844 8.694288 -8.117871 26.017173 -0.219640 10.550401 3.792159 -10.808886 
0.626310 1.819181 0.937172 -62.429523 3.286578 83.218829 16.531105 7.391875 -2.832657 -6.617892 12.839480 31.648066 0.261816 13.839354 -23.448284 0.000000 -0.000000 0.000000 -5.874860 -6.750282 3.215806 5.415566 -5.051158 23.142603 -3.170736 -3.561766 -28.002384 0.000000 -0.000000 0.000000 0.967684 3.541759 8.696282 1.650564 0.098699 7.893215 2.189203 0.607543 1.689023 -0.142781 20.510142 -2.322258 -4.360190 18.879538 2.840493 -25.329171 2.099185 3.366884 -57.232630 -1.314576 9.505050 3.264827 -44.693173 14.281299 4.665936 -3.888022 -18.611872 27.141660 1.167866 7.168687 52.630014 9.894718 8.507126 -7.186311 28.857254 0.072676 10.653965 3.944634 -12.434865 
0.623517 1.806185 0.933050 -64.070264 3.733448 84.399757 16.646212 7.881842 -5.204649 -6.259560 14.293751 35.727246 0.268383 14.749049 -23.725566 0.000000 -0.000000 0.000000 -6.484126 -6.350487 1.301079 5.796736 -4.814453 24.676814 -2.704534 -3.607112 -28.780237 0.000000 -0.000000 0.000000 1.325160 3.449785 9.742538 2.046085 0.631736 6.896579 2.389206 0.485426 1.825637 -0.643608 21.007205 -3.094788 -5.240777 19.696556 2.111846 -24.385894 4.129842 3.714404 -55.947819 1.522559 10.066844 -0.773698 -51.433545 18.522001 5.265105 -4.204878 -20.644952 26.510626 -0.181564 6.729567 50.570466 9.377683 8.623837 -5.189225 32.931625 0.026562 9.530377 4.317756 -14.617523 
0.623615 1.790990 0.928251 -65.437642 3.636013 85.903733 16.543347 8.327663 -9.424322 -6.137797 16.366594 42.318608 0.799725 14.793769 -22.576709 0.000000 -0.000000 0.000000 -8.222259 -6.099974 -1.566567 6.555087 -5.141880 27.140406 -2.450313 -3.180647 -29.503702 0.000000 -0.000000 0.000000 1.677679 3.215063 11.549548 2.060538 0.934041 5.740082 2.338370 0.177218 1.643424 -1.380790 21.541572 -3.643521 -6.352399 21.169879 1.061655 -23.700062 6.196295 4.492475 -54.822420 4.633709 10.105114 -4.759404 -57.882524 21.939536 4.066055 -4.872368 -22.474128 25.789351 -1.183979 6.837175 48.428039 9.437294 8.635647 -3.163123 37.282472 -0.104334 9.445557 4.784044 -16.772069 
0.627074 1.773576 0.921540 -66.594718 2.947602 87.906261 16.309601 8.762887 -15.084290 -7.181443 18.401143 49.536665 1.217328 14.031959 -20.794716 0.000000 -0.000000 0.000000 -11.202734 -6.691607 -5.769227 7.505936 -5.711697 30.975294 -2.030729 -2.421503 -30.235030 0.000000 -0.000000 0.000000 1.983471 3.267037 13.602439 1.831770 1.136401 4.854056 2.122809 -0.247095 1.796103 -3.327235 21.687295 -5.685159 -7.466245 22.546932 -1.190514 -23.308793 7.232540 5.208927 -55.143709 6.752671 10.347357 -6.934861 -61.413878 23.078764 7.599254 -4.280301 -26.625630 25.266956 -1.788437 6.656670 46.297039 9.855206 8.536789 -1.960326 41.323479 -0.639285 7.175540 5.280948 -18.978343 
0.633738 1.755278 0.910588 -67.981239 2.004395 90.146124 15.868673 10.292651 -21.345602 -8.492722 19.383632 54.322574 1.748234 10.582497 -21.469438 0.000000 -0.000000 0.000000 -14.643567 -8.210384 -11.266270 7.690880 -6.789259 36.252780 -0.759900 -1.156874 -30.719516 0.000000 -0.000000 0.000000 2.549324 3.077549 16.879319 1.028725 1.527526 4.047601 1.760739 -0.499863 1.558889 -5.652520 21.877116 -8.703627 -9.643598 24.038087 -4.451053 -23.950692 7.725853 5.600246 -56.805131 7.823890 9.332250 -3.912924 -63.057907 20.664441 10.094290 -3.906694 -26.865251 24.402028 -1.653942 6.775578 45.292803 10.925406 7.925143 -1.784473 44.506261 -2.224399 5.245539 5.995037 -20.760166 
0.645200 1.731455 0.889750 -70.118122 0.698574 93.144836 16.561478 12.376821 -30.054063 -6.463584 22.459148 57.700750 3.096020 9.931534 -22.068631 0.000000 -0.000000 0.000000 -18.551789 -10.632353 -18.923537 7.353985 -7.037427 43.636972 0.025713 1.274728 -32.040351 0.000000 -0.000000 0.000000 3.133059 2.471503 22.515254 -0.731551 2.200217 2.539743 1.348843 -0.654261 1.421232 -9.082466 21.511495 -14.881142 -12.716550 26.302583 -9.052591 -26.845000 8.329091 4.497701 -59.886287 7.141760 6.806073 7.707594 -62.021113 8.907696 11.321879 -3.509987 -27.769774 23.904076 -0.824701 6.454361 44.067126 13.008605 7.564834 -3.021954 47.173870 -4.682502 3.756359 6.824465 -20.730376 
0.653356 1.708633 0.869116 -71.610141 -0.281779 94.469806 18.053711 14.394319 -35.697437 -4.802092 23.471106 57.840741 3.249275 8.889196 -21.461251 0.000000 -0.000000 0.000000 -21.430101 -13.386271 -23.184309 8.346936 -4.905239 48.547192 0.435740 2.539254 -32.444700 0.000000 -0.000000 0.000000 3.690990 1.723980 28.535404 -2.665365 1.981471 3.119130 1.627741 -0.641205 -1.052304 -12.576596 17.773521 -19.693688 -13.356454 30.871456 -13.757647 -28.944149 4.938340 3.271549 -63.862855 7.010059 0.307720 14.632547 -59.163513 3.058748 13.432611 -3.519361 -28.352745 21.923732 3.719932 6.654691 44.083298 12.840421 1.983914 -2.195461 47.963293 -5.646045 10.546755 8.621454 -19.514811 
0.658955 1.682794 0.844515 -73.606187 -0.568364 95.874231 21.270786 17.602312 -40.308496 -5.310838 24.123383 56.010273 1.661339 6.962688 -21.074898 0.000000 -0.000000 0.000000 -23.976788 -14.519094 -27.463380 8.164228 -4.810244 53.192392 0.952283 5.013464 -33.461724 0.000000 -0.000000 0.000000 4.077170 0.322648 33.653938 -4.148761 2.196151 3.835846 1.137306 0.015380 -2.655579 -15.120217 17.645559 -22.777357 -15.203317 31.067832 -19.228991 -31.473175 0.965580 2.461476 -63.233258 5.213564 0.039160 25.464888 -54.218210 -5.137866 12.233698 -4.019186 -31.024620 21.939934 8.067438 7.596205 41.724175 16.078722 -0.895488 -4.320773 46.286764 -9.461382 10.494155 8.979221 -24.061439 
0.661856 1.652762 0.818951 -74.880257 -0.647881 96.381289 24.207718 20.739757 -43.520949 -5.321166 23.297545 53.638408 0.548496 5.455472 -20.740979 0.000000 -0.000000 0.000000 -26.881181 -16.588250 -29.844206 9.014645 -4.391470 56.756700 1.409364 7.124005 -34.307349 0.000000 -0.000000 0.000000 4.400182 -0.932638 38.894662 -5.118689 1.648829 5.562034 0.867712 0.339152 -4.388629 -18.064232 17.223412 -25.343794 -16.263708 31.273729 -23.619890 -32.003767 -2.869720 2.124743 -59.446164 4.419696 -1.266541 28.163577 -52.577937 -12.281574 14.731819 -3.374917 -31.820742 21.960208 13.861909 8.230259 36.458162 20.301052 -4.323547 -5.781370 44.552363 -16.388717 7.916118 8.361857 -22.122523 
